<?xml version="1.0" encoding="utf-8"?>
<!-- Generator: Adobe Illustrator 26.5.0, SVG Export Plug-In . SVG Version: 6.00 Build 0)  -->
<svg version="1.1" id="Layer_1" xmlns="http://www.w3.org/2000/svg" xmlns:xlink="http://www.w3.org/1999/xlink" x="0px" y="0px"
	 viewBox="0 0 928.35 338.12" style="enable-background:new 0 0 928.35 338.12;" xml:space="preserve">
<style type="text/css">
	.st0{fill:#FFFFFF;}
	.st1{fill:#211C5B;}
	.st2{fill:#BE1E2D;}
</style>
<rect class="st0" width="928.35" height="338.12"/>
<g>
	<path class="st1" d="M695.16,22.56C678.6,7.52,653.13,0,618.73,0H292.11l-34.57,206.49l-0.18,1.09l12.69,81.51h57.82l18.54-110.13
		h92.82l10.62-63.11h-92.81l8.56-50.83h115.73L443.8,289.1h82.65l18.51-109.92h34.29l25.5,109.92h85.74l-31.37-121.15
		C699.71,153.26,720,125.23,720,83.87C720,58.03,711.72,37.59,695.16,22.56z M658.6,88.68l-6.78,40.86l-1.14,1.77l-0.99,0.01
		l-0.48,0.2h-1.2l-0.83-0.42h-0.42l-0.45-0.69h-0.37l-0.12,0.18l-0.34-0.18h-0.26l-0.18-0.21h-0.94l0.02-0.15h-0.13l-0.57-0.74
		l-0.65-0.35l-0.46,0.06l-0.49-0.23h-0.62l-0.38-0.42h-1.69l0.03-0.26h-0.39l0.06-0.63h-0.3l0.11-0.68h-0.31l-0.02-0.58h-1.11
		l-0.01-0.05l-0.35,0.11l-0.23-0.78l-0.81,1.2l-0.94-0.36l-0.23,0.14l-0.17-0.24l-0.98,0.06l-1.31,1.05l-0.99-1.08l-1.15-0.04
		l-0.19-0.1h-1.2l-0.33-0.39l-0.66,0.31l-0.27,0.32l-2.68,1.42l-0.41-0.51l-3.34,0.01l-1.16,0.44l-0.07-0.09l-0.69,1.02l-2.09,0.77
		l-0.11,1.16l-1.84,0.04l-0.49,0.22h-2.09l-1.51-1.84l-0.98,0.11l-0.78-1.15h-0.01l-0.48-0.39h-0.84l-0.77,0.21h-1.95l-0.41-0.47
		h-1.13l-0.43-0.45l-0.04,0.04l-0.54,0.31l-0.23,1.32l-0.22,0.17l-0.04,0.21l-2.07,1.56l-1.93-0.29h-0.39l-0.14-0.1l-0.37-0.07
		l-0.39-0.47l-0.28-0.21l-1.35-0.68l0.15-0.62h-1.99l-1.17-0.36l-1.01-0.76l-0.36-0.74l-0.54-0.05l-1.06-0.64l-0.94,0.74l-1.03,0.74
		l-2.3,0.67l-1.45-0.91h-2.58l0.33-1.48l-0.73-1.29l0.11-0.35l-0.24-0.08l-0.82-0.99l-0.65-1.51l-0.08-0.01l-0.13-0.09l-0.51-0.03
		l-0.96,4.2l-2.25-2.62h-1.43l-1.39-1.06l-0.27-0.46l-1.59,0.04l-0.19,0.06h-1.66l-0.23-0.26h-2.04l0.08-0.37h-0.56l-0.04-0.1h-1.17
		l0.13-1.05h-0.72l-0.27-0.09l-0.56,0.21l-1.27-0.43l-3.28-0.62l0.24-1.01h-0.24l0.13-0.68l-0.17-0.2l0.25-0.43h-0.23l0.1-0.79
		l-1.6,0.01l-0.04-0.05h-0.68l-0.25-0.39l-0.4,0.33h-5.63l0.41-1.56l-0.14-0.12h-0.25l-0.66-1.09l-0.86-1.03l0.1-0.15l-0.05-0.09
		h-1.82l0.08-0.37h-1l7.66-45.71h-54.28l2.96-17.68h158.2L658.6,88.68z"/>
	<path class="st2" d="M257.19,206.49L225.05,0h-90.92L0,289.1h71.81l27.05-59.09h77.58l8.08,59.09h58.83h26.69l-12.69-81.51
		L257.19,206.49z M121.57,170.28l38.18-83.66l11.52,83.66H121.57z"/>
	<path class="st2" d="M499.15,65.02h54.28l-7.66,45.71h1l-0.08,0.37h1.82l0.05,0.09l-0.1,0.15l0.86,1.03l0.66,1.09h0.25l0.14,0.12
		l-0.41,1.56h5.63l0.4-0.33l0.25,0.39h0.68l0.04,0.05l1.6-0.01l-0.1,0.79h0.23l-0.25,0.43l0.17,0.2l-0.13,0.68h0.24l-0.24,1.01
		l3.28,0.62l1.27,0.43l0.56-0.21l0.27,0.09h0.72l-0.13,1.05h1.17l0.04,0.1h0.56l-0.08,0.37h2.04l0.23,0.26h1.66l0.19-0.06l1.59-0.04
		l0.27,0.46l1.39,1.06h1.43l2.25,2.62l0.96-4.2l0.51,0.03l0.13,0.09l0.08,0.01l0.65,1.51l0.82,0.99l0.24,0.08l-0.11,0.35l0.73,1.29
		l-0.33,1.48h2.58l1.45,0.91l2.3-0.67l1.03-0.74l0.94-0.74l1.06,0.64l0.54,0.05l0.36,0.74l1.01,0.76l1.17,0.36h1.99l-0.15,0.62
		l1.35,0.68l0.28,0.21l0.39,0.47l0.37,0.07l0.14,0.1h0.39l1.93,0.29l2.07-1.56l0.04-0.21l0.22-0.17l0.23-1.32l0.54-0.31l0.04-0.04
		l0.43,0.45h1.13l0.41,0.47h1.95l0.77-0.21h0.84l0.48,0.39h0.01l0.78,1.15l0.98-0.11l1.51,1.84h2.09l0.49-0.22l1.84-0.04l0.11-1.16
		l2.09-0.77l0.69-1.02l0.07,0.09l1.16-0.44l3.34-0.01l0.41,0.51l2.68-1.42l0.27-0.32l0.66-0.31l0.33,0.39h1.2l0.19,0.1l1.15,0.04
		l0.99,1.08l1.31-1.05l0.98-0.06l0.17,0.24l0.23-0.14l0.94,0.36l0.81-1.2l0.23,0.78l0.35-0.11l0.01,0.05h1.11l0.02,0.58h0.31
		l-0.11,0.68h0.3l-0.06,0.63h0.39l-0.03,0.26h1.69l0.38,0.42h0.62l0.49,0.23l0.46-0.06l0.65,0.35l0.57,0.74h0.13l-0.02,0.15h0.94
		l0.18,0.21h0.26l0.34,0.18l0.12-0.18h0.37l0.45,0.69h0.42l0.83,0.42h1.2l0.48-0.2l0.99-0.01l1.14-1.77l6.78-40.86l1.71-41.34
		h-158.2L499.15,65.02z M506.36,52.61h148.47l-1.45,35.38l-6.08,36.64h-0.1l-0.58-0.31l-0.07,0.06l-0.17-0.06l-0.93-1.05h-0.43
		l0.02-0.21h-0.4l0.14-0.84h-0.95l0.27-1.26h-2.5l-1.02-0.56l-0.22-0.27h-0.28l-1.43-0.79h-0.44l-0.19-0.07l-0.37-0.46h-1.26
		l-1.26,0.05h-0.3l-1.34,1.73h-0.6l0.24-0.94h-0.86l0.09-0.66l-4.81,0.87l-0.24,0.3h-0.01l-0.92,0.42l-2.91,0.34l-0.01,0.1
		l-3.23-0.64l-0.17,1h-1.13l-0.06,0.35l-0.54,0.01l-0.02,0.09l-0.23,0.01L617.9,122l-0.19,0.07l-1.7,0.04l-0.27,1.19l-0.45,0.39
		l-1.24,0.15l-0.07,0.06l-1.01-0.44h-0.15l-0.15-0.19l0.27-1.02h-0.63l-1.15-1.37h-0.97l-0.88-0.47h-1.77l-0.62,0.51l0.99-1.35
		h-1.16v-0.06h-1.68l-0.05-0.05h-1.99l-0.18,0.11l-1.33,0.05l-1.6,1.36l-0.14,0.01l-0.54-0.69l-2.45,0.4l-0.18,0.12l-0.2,0.01
		l-0.62,0.53l-0.46,0.16l-0.24,0.01l-1.48-1.01h-0.38l-0.53-0.24l-0.26-0.31l-1.83-1.07h-0.29l-2.95-1.51l-0.16,1.51h-1.18
		l-0.03-0.1h-0.27l-0.12-0.26h-0.8l0.11-0.64l-1.38-2.72h-0.43l-0.04-0.05h-2.39l-0.68,0.58l-0.51-0.21l-0.14,0.04l-0.1-0.15
		l-0.14-0.02l-0.13-0.14h-0.73l-3.24-0.46l-0.24,1.06l-0.03,0.01l-1.27-0.87h-0.56l-0.14-0.11h-2.02l-0.64,0.55l-1.42-0.49h-0.22
		l-1.29-1.21h-0.65l-1.07-0.62l-0.58,0.33l0.3-1.29h-0.46l0.03-0.16h-0.27v-0.08l-0.61-0.35l0.06-0.44l-0.79-0.92l0.23-1.05h-1.72
		l-0.29-0.44l-1.35-0.72h-1.88l-0.43,0.42h-1.14l-0.08,0.47h-1.72l-0.91,0.41l-0.34-0.29l-0.44-1.3l0.38-1.7h-0.77l0.03-0.37h-0.65
		l7.71-46h-54.6L506.36,52.61z"/>
	<path d="M10.27,302.02L0,337.49h5.58l2.18-8.88h10.37l2.23,8.88h5.96l-9.47-35.48h-6.58V302.02z M8.94,323.98l4.04-16.22
		l3.99,16.22H8.94z"/>
	<polygon points="45.53,327.6 38.45,302.02 29.78,302.02 29.78,337.49 34.68,337.49 34.68,307.18 42.92,337.49 47.23,337.49 
		55.63,307.23 55.63,337.49 61.17,337.49 61.17,302.02 52.81,302.02 	"/>
	<polygon points="73.77,321.59 85.1,321.59 85.1,316.91 73.77,316.91 73.77,306.7 88.24,306.7 88.24,302.02 67.92,302.02 
		67.92,337.49 88.45,337.49 88.45,332.71 73.77,332.71 	"/>
	<path d="M114.35,312.12c0-3.46-1.22-6.33-3.4-8.08c-1.81-1.38-4.2-2.02-7.92-2.02H92.39v35.48h5.85v-14.84h5.53l5.53,14.84h6.33
		l-6.7-16.06C112.65,319.41,114.35,316.54,114.35,312.12z M102.76,318.13h-4.52v-11.59h4.52c3.83,0,5.8,1.86,5.8,5.53
		C108.55,315.95,106.48,318.13,102.76,318.13z"/>
	<rect x="120.26" y="302.02" width="5.85" height="35.48"/>
	<path d="M144.83,306.22c1.97,0,3.46,0.85,4.47,2.55c0.74,1.22,1.12,2.55,1.49,5.53l5.48-0.8c-1.12-8.19-4.89-12.13-11.54-12.13
		c-8.24,0-12.92,6.65-12.92,18.4c0,11.81,4.57,18.35,12.82,18.35c6.65,0,10.48-3.94,11.6-11.81l-5.42-0.74
		c-0.91,5.59-2.55,7.71-5.9,7.71c-4.57,0-6.86-4.41-6.86-13.24C138.02,310.74,140.26,306.22,144.83,306.22z"/>
	<path d="M167.81,302.02l-10.26,35.48h5.58l2.18-8.88h10.37l2.23,8.88h5.96l-9.47-35.48H167.81z M166.48,323.98l4.04-16.22
		l3.99,16.22H166.48z"/>
	<polygon points="205.78,327.6 194.13,302.02 187.22,302.02 187.22,337.49 192.11,337.49 192.11,309.09 205.2,337.49 210.67,337.49 
		210.67,302.02 205.78,302.02 	"/>
	<polygon points="233.12,306.7 246.95,306.7 246.95,302.02 227.27,302.02 227.27,337.49 233.12,337.49 233.12,322.02 244.18,322.02 
		244.18,317.34 233.12,317.34 	"/>
	<path d="M255.51,302.02l-10.26,35.48h5.58l2.18-8.88h10.37l2.23,8.88h5.96l-9.47-35.48H255.51z M254.18,323.98l4.04-16.22
		l3.99,16.22H254.18z"/>
	<path d="M297.1,312.12c0-3.46-1.22-6.33-3.4-8.08c-1.81-1.38-4.2-2.02-7.92-2.02h-10.64v35.48h5.85v-14.84h5.53l5.53,14.84h6.33
		l-6.7-16.06C295.4,319.41,297.1,316.54,297.1,312.12z M285.51,318.13h-4.52v-11.59h4.52c3.83,0,5.8,1.86,5.8,5.53
		C291.31,315.95,289.23,318.13,285.51,318.13z"/>
	<polygon points="318.7,327.6 311.62,302.02 302.95,302.02 302.95,337.49 307.85,337.49 307.85,307.18 316.09,337.49 320.4,337.49 
		328.8,307.23 328.8,337.49 334.33,337.49 334.33,302.02 325.98,302.02 	"/>
	<polygon points="346.94,321.59 358.27,321.59 358.27,316.91 346.94,316.91 346.94,306.7 361.41,306.7 361.41,302.02 341.09,302.02 
		341.09,337.49 361.62,337.49 361.62,332.71 346.94,332.71 	"/>
	<path d="M387.52,312.12c0-3.46-1.22-6.33-3.4-8.08c-1.81-1.38-4.2-2.02-7.92-2.02h-10.64v35.48h5.85v-14.84h5.53l5.53,14.84h6.33
		l-6.7-16.06C385.82,319.41,387.52,316.54,387.52,312.12z M375.93,318.13h-4.52v-11.59h4.52c3.83,0,5.8,1.86,5.8,5.53
		C381.72,315.95,379.65,318.13,375.93,318.13z"/>
	<path d="M411.99,320.15c-1.6-1.38-3.24-2.23-6.75-3.56c-3.56-1.38-4.58-1.86-5.64-2.77c-0.9-0.8-1.44-1.92-1.44-3.14
		c0-2.61,1.97-4.47,4.84-4.47c3.19,0,4.89,1.49,6.22,5.48l5-1.76c-0.9-2.92-1.65-4.36-3.19-5.8c-1.97-1.86-4.57-2.77-7.71-2.77
		c-6.44,0-10.9,4.09-10.9,10c0,2.87,1.17,5.48,3.19,7.23c1.7,1.49,2.61,1.91,7.5,3.78c4.52,1.7,6.01,3.14,6.01,5.8
		c0,3.08-2.29,5.11-5.74,5.11c-3.88,0-6.22-2.13-7.18-6.54l-5.21,1.49c0.74,3.19,1.6,4.84,3.3,6.54c2.18,2.18,5.32,3.35,8.99,3.35
		c7.02,0,11.86-4.41,11.86-10.74C415.13,324.46,413.96,321.86,411.99,320.15z"/>
	<path d="M453.31,330.74c2.34-3.35,3.88-7.18,4.79-12.07l-4.36-0.96c-0.75,4.1-1.81,7.18-3.19,9.31l-6.01-8.72
		c4.36-2.55,6.44-5.53,6.44-9.2c0-4.63-3.19-7.71-7.98-7.71c-4.68,0-8.35,3.35-8.35,7.66c0,2.29,0.9,4.68,3.14,8.14
		c-5.27,2.45-7.77,5.85-7.77,10.53c0,6.22,4.36,10.42,10.69,10.42c3.51,0,5.9-0.96,9.1-3.67c2.18,2.66,3.67,3.51,6.01,3.51
		c0.9,0,1.6-0.11,2.87-0.48v-4.57c-0.85,0.16-1.17,0.21-1.65,0.21C455.71,333.13,454.86,332.55,453.31,330.74z M443.1,305.37
		c1.91,0,3.19,1.49,3.19,3.67c0,2.39-1.38,4.47-4.1,6.01c-1.6-2.39-2.39-4.47-2.39-6.17C439.8,306.86,441.19,305.37,443.1,305.37z
		 M441.45,333.72c-3.46,0-5.8-2.55-5.8-6.28c0-2.93,1.28-4.95,4.41-6.91l7.18,10.42C445.39,332.92,443.69,333.72,441.45,333.72z"/>
	<path d="M495.7,312.12c0-3.46-1.22-6.33-3.4-8.08c-1.81-1.38-4.2-2.02-7.92-2.02h-10.64v35.48h5.85v-14.84h5.53l5.53,14.84h6.33
		l-6.7-16.06C494,319.41,495.7,316.54,495.7,312.12z M484.11,318.13h-4.52v-11.59h4.52c3.83,0,5.8,1.86,5.8,5.53
		C489.91,315.95,487.83,318.13,484.11,318.13z"/>
	<path d="M509.96,302.02L499.7,337.5h5.58l2.18-8.88h10.37l2.23,8.88h5.96l-9.47-35.48H509.96z M508.63,323.98l4.04-16.22
		l3.99,16.22H508.63z"/>
	<polygon points="547.93,327.6 536.29,302.02 529.37,302.02 529.37,337.49 534.26,337.49 534.26,309.09 547.35,337.49 
		552.83,337.49 552.83,302.02 547.93,302.02 	"/>
	<path d="M571.39,306.22c1.97,0,3.46,0.85,4.47,2.55c0.75,1.22,1.12,2.55,1.49,5.53l5.48-0.8c-1.12-8.19-4.89-12.13-11.54-12.13
		c-8.24,0-12.92,6.65-12.92,18.4c0,11.81,4.58,18.35,12.82,18.35c6.65,0,10.48-3.94,11.59-11.81l-5.42-0.74
		c-0.9,5.59-2.55,7.71-5.9,7.71c-4.57,0-6.86-4.41-6.86-13.24C564.58,310.74,566.81,306.22,571.39,306.22z"/>
	<polygon points="604.04,316.75 593.57,316.75 593.57,302.02 587.72,302.02 587.72,337.49 593.57,337.49 593.57,321.7 604.04,321.7 
		604.04,337.49 609.9,337.49 609.9,302.02 604.04,302.02 	"/>
	<polygon points="622.55,321.59 633.88,321.59 633.88,316.91 622.55,316.91 622.55,306.7 637.02,306.7 637.02,302.02 616.7,302.02 
		616.7,337.49 637.23,337.49 637.23,332.71 622.55,332.71 	"/>
	<path d="M663.14,312.12c0-3.46-1.22-6.33-3.4-8.08c-1.81-1.38-4.2-2.02-7.92-2.02h-10.64v35.48h5.85v-14.84h5.53l5.53,14.84h6.33
		l-6.7-16.06C661.43,319.41,663.14,316.54,663.14,312.12z M651.54,318.13h-4.52v-11.59h4.52c3.83,0,5.8,1.86,5.8,5.53
		C657.34,315.95,655.26,318.13,651.54,318.13z"/>
	<path d="M687.6,320.15c-1.6-1.38-3.25-2.23-6.75-3.56c-3.56-1.38-4.57-1.86-5.64-2.77c-0.9-0.8-1.44-1.92-1.44-3.14
		c0-2.61,1.97-4.47,4.84-4.47c3.19,0,4.89,1.49,6.22,5.48l5-1.76c-0.9-2.92-1.65-4.36-3.19-5.8c-1.97-1.86-4.57-2.77-7.71-2.77
		c-6.44,0-10.9,4.09-10.9,10c0,2.87,1.17,5.48,3.19,7.23c1.7,1.49,2.61,1.91,7.5,3.78c4.52,1.7,6.01,3.14,6.01,5.8
		c0,3.08-2.29,5.11-5.74,5.11c-3.88,0-6.22-2.13-7.18-6.54l-5.21,1.49c0.75,3.19,1.6,4.84,3.3,6.54c2.18,2.18,5.32,3.35,8.99,3.35
		c7.02,0,11.86-4.41,11.86-10.74C690.74,324.46,689.57,321.86,687.6,320.15z"/>
</g>
</svg>
